<mxfile host="app.diagrams.net" modified="2024-04-12T03:46:11.946Z" agent="Mozilla/5.0 (Macintosh; Intel Mac OS X 10_15_7) AppleWebKit/537.36 (KHTML, like Gecko) Chrome/123.0.0.0 Safari/537.36" version="24.2.3" etag="Yk-8l3Dr0L8TLRDb8PJE" type="github">
  <diagram name="Page-1" id="PqxGZTVNrn6EuUlePG_y">
    <mxGraphModel>
      <root>
        <mxCell id="0" />
        <mxCell id="1" parent="0" />
      </root>
    </mxGraphModel>
  </diagram>
</mxfile>
